<svg xmlns="http://www.w3.org/2000/svg" xmlns:xlink="http://www.w3.org/1999/xlink" width="1080" zoomAndPan="magnify" viewBox="0 0 810 809.999993" height="1080" preserveAspectRatio="xMidYMid meet" version="1.0"><defs><g/><clipPath id="daa0ef6426"><path d="M 0.398438 33 L 73 33 L 73 155 L 0.398438 155 Z M 0.398438 33 " clip-rule="nonzero"/></clipPath><clipPath id="d1b8400ae6"><rect x="0" width="678" y="0" height="183"/></clipPath><clipPath id="5f623d3aee"><rect x="0" width="320" y="0" height="90"/></clipPath></defs><g transform="matrix(1, 0, 0, 1, 68, 267)"><g clip-path="url(#d1b8400ae6)"><g clip-path="url(#daa0ef6426)"><g fill="#4f3f2f" fill-opacity="1"><g transform="translate(0.493273, 120.801952)"><g><path d="M 0.953125 33.625 C 0.316406 33.625 0 33.300781 0 32.65625 L 0.125 32.171875 C 1.238281 30.648438 2.554688 28.289062 4.078125 25.09375 C 5.597656 21.894531 7.160156 18.234375 8.765625 14.109375 C 10.367188 9.984375 11.945312 5.757812 13.5 1.4375 C 15.0625 -2.882812 16.484375 -6.960938 17.765625 -10.796875 C 19.046875 -14.640625 20.085938 -17.882812 20.890625 -20.53125 L 16.8125 -20.40625 C 15.125 -20.40625 13.300781 -20.503906 11.34375 -20.703125 C 9.382812 -20.910156 7.703125 -21.273438 6.296875 -21.796875 C 4.898438 -22.316406 4.125 -23.09375 3.96875 -24.125 C 3.96875 -24.53125 4.1875 -24.890625 4.625 -25.203125 C 5.0625 -25.523438 5.441406 -25.6875 5.765625 -25.6875 C 6.003906 -25.6875 6.203125 -25.53125 6.359375 -25.21875 C 6.597656 -24.488281 7.335938 -23.90625 8.578125 -23.46875 C 9.828125 -23.03125 11.3125 -22.691406 13.03125 -22.453125 C 14.75 -22.210938 16.445312 -22.09375 18.125 -22.09375 C 18.769531 -22.09375 19.351562 -22.09375 19.875 -22.09375 C 20.394531 -22.09375 20.894531 -22.132812 21.375 -22.21875 C 21.851562 -23.8125 22.613281 -26.410156 23.65625 -30.015625 C 24.695312 -33.617188 25.914062 -37.78125 27.3125 -42.5 C 28.71875 -47.21875 30.21875 -52.039062 31.8125 -56.96875 C 33.414062 -61.894531 35.054688 -66.535156 36.734375 -70.890625 C 38.421875 -75.253906 40.039062 -78.894531 41.59375 -81.8125 C 43.15625 -84.738281 44.578125 -86.484375 45.859375 -87.046875 C 46.265625 -87.203125 46.601562 -87.320312 46.875 -87.40625 C 47.15625 -87.488281 47.457031 -87.53125 47.78125 -87.53125 C 48.664062 -87.53125 49.566406 -87.066406 50.484375 -86.140625 C 51.398438 -85.222656 52.257812 -83.523438 53.0625 -81.046875 C 53.945312 -78.398438 54.769531 -75.09375 55.53125 -71.125 C 56.289062 -67.164062 56.96875 -62.828125 57.5625 -58.109375 C 58.164062 -53.390625 58.75 -48.546875 59.3125 -43.578125 C 59.875 -38.617188 60.429688 -33.816406 60.984375 -29.171875 C 61.867188 -29.253906 62.726562 -29.316406 63.5625 -29.359375 C 64.40625 -29.398438 65.226562 -29.421875 66.03125 -29.421875 C 67.070312 -29.421875 68.03125 -29.378906 68.90625 -29.296875 C 69.789062 -29.210938 70.59375 -29.09375 71.3125 -28.9375 C 71.789062 -28.851562 72.03125 -28.570312 72.03125 -28.09375 C 72.03125 -27.53125 71.753906 -27.25 71.203125 -27.25 C 70.398438 -27.332031 69.617188 -27.429688 68.859375 -27.546875 C 68.097656 -27.671875 67.15625 -27.734375 66.03125 -27.734375 C 65.3125 -27.734375 64.550781 -27.710938 63.75 -27.671875 C 62.945312 -27.628906 62.109375 -27.570312 61.234375 -27.5 C 61.796875 -23.09375 62.4375 -18.164062 63.15625 -12.71875 C 63.875 -7.28125 64.632812 -1.863281 65.4375 3.53125 C 66.238281 8.9375 67.019531 13.898438 67.78125 18.421875 C 68.539062 22.953125 69.160156 26.578125 69.640625 29.296875 L 69.75 29.78125 C 69.75 30.570312 69.390625 31.207031 68.671875 31.6875 C 67.953125 32.175781 67.15625 32.421875 66.28125 32.421875 C 64.914062 32.421875 64.070312 31.78125 63.75 30.5 C 63.1875 27.9375 62.523438 24.351562 61.765625 19.75 C 61.003906 15.144531 60.203125 10.082031 59.359375 4.5625 C 58.523438 -0.957031 57.75 -6.457031 57.03125 -11.9375 C 56.3125 -17.425781 55.710938 -22.332031 55.234375 -26.65625 C 50.984375 -25.9375 47.195312 -25.15625 43.875 -24.3125 C 40.5625 -23.46875 37.265625 -22.707031 33.984375 -22.03125 C 30.703125 -21.351562 26.976562 -20.894531 22.8125 -20.65625 C 22.007812 -17.925781 20.945312 -14.597656 19.625 -10.671875 C 18.3125 -6.753906 16.851562 -2.597656 15.25 1.796875 C 13.644531 6.203125 12.019531 10.503906 10.375 14.703125 C 8.738281 18.910156 7.160156 22.65625 5.640625 25.9375 C 4.117188 29.21875 2.757812 31.65625 1.5625 33.25 C 1.476562 33.5 1.273438 33.625 0.953125 33.625 Z M 23.296875 -22.328125 C 27.210938 -22.648438 30.8125 -23.148438 34.09375 -23.828125 C 37.375 -24.515625 40.695312 -25.273438 44.0625 -26.109375 C 47.425781 -26.953125 51.066406 -27.691406 54.984375 -28.328125 C 54.503906 -32.648438 54.023438 -37.453125 53.546875 -42.734375 C 53.066406 -48.023438 52.523438 -53.25 51.921875 -58.40625 C 51.328125 -63.570312 50.609375 -68.253906 49.765625 -72.453125 C 48.921875 -76.660156 47.898438 -79.882812 46.703125 -82.125 C 46.460938 -82.6875 46.101562 -82.96875 45.625 -82.96875 C 44.820312 -82.96875 43.820312 -81.925781 42.625 -79.84375 C 41.425781 -77.757812 40.144531 -74.992188 38.78125 -71.546875 C 37.414062 -68.109375 36.050781 -64.304688 34.6875 -60.140625 C 33.332031 -55.984375 31.992188 -51.785156 30.671875 -47.546875 C 29.347656 -43.304688 28.164062 -39.363281 27.125 -35.71875 C 26.09375 -32.070312 25.234375 -29.046875 24.546875 -26.640625 C 23.867188 -24.242188 23.453125 -22.804688 23.296875 -22.328125 Z M 23.296875 -22.328125 "/></g></g></g></g><g fill="#4f3f2f" fill-opacity="1"><g transform="translate(76.843712, 120.801952)"><g><path d="M 10.203125 12.96875 C 7.960938 12.882812 6.160156 11.640625 4.796875 9.234375 C 3.441406 6.835938 2.398438 3.796875 1.671875 0.109375 C 0.953125 -3.566406 0.492188 -7.445312 0.296875 -11.53125 C 0.0976562 -15.613281 0 -19.332031 0 -22.6875 L 0.125 -29.296875 C 0.125 -30.578125 0.160156 -32.773438 0.234375 -35.890625 C 0.316406 -39.015625 0.5 -42.640625 0.78125 -46.765625 C 1.0625 -50.890625 1.519531 -55.128906 2.15625 -59.484375 C 2.800781 -63.847656 3.703125 -67.890625 4.859375 -71.609375 C 6.023438 -75.335938 7.488281 -78.378906 9.25 -80.734375 C 11.007812 -83.097656 13.128906 -84.320312 15.609375 -84.40625 C 16.804688 -84.40625 17.945312 -83.820312 19.03125 -82.65625 C 20.113281 -81.5 20.65625 -79.160156 20.65625 -75.640625 C 20.65625 -72.359375 20.015625 -67.914062 18.734375 -62.3125 C 17.691406 -57.988281 16.445312 -53.804688 15 -49.765625 C 13.5625 -45.722656 12.140625 -42.019531 10.734375 -38.65625 C 9.335938 -35.300781 8.078125 -32.484375 6.953125 -30.203125 C 5.835938 -27.921875 5.082031 -26.378906 4.6875 -25.578125 C 4.6875 -24.210938 4.765625 -22.085938 4.921875 -19.203125 C 5.078125 -16.328125 5.316406 -13.164062 5.640625 -9.71875 C 5.960938 -6.28125 6.382812 -2.984375 6.90625 0.171875 C 7.425781 3.335938 8.046875 5.941406 8.765625 7.984375 C 9.484375 10.023438 10.320312 11.046875 11.28125 11.046875 L 11.640625 11.046875 C 13.242188 10.566406 14.882812 9.382812 16.5625 7.5 C 18.25 5.625 19.953125 3.320312 21.671875 0.59375 C 23.390625 -2.125 25.007812 -4.941406 26.53125 -7.859375 C 28.050781 -10.785156 29.429688 -13.566406 30.671875 -16.203125 C 31.910156 -18.847656 32.910156 -21.070312 33.671875 -22.875 C 34.429688 -24.675781 34.894531 -25.734375 35.0625 -26.046875 C 35.21875 -26.367188 35.414062 -26.53125 35.65625 -26.53125 C 36.375 -26.53125 36.734375 -26.210938 36.734375 -25.578125 L 36.625 -25.21875 C 36.382812 -24.738281 35.800781 -23.476562 34.875 -21.4375 C 33.957031 -19.394531 32.773438 -16.929688 31.328125 -14.046875 C 29.890625 -11.160156 28.3125 -8.15625 26.59375 -5.03125 C 24.875 -1.914062 23.070312 1 21.1875 3.71875 C 19.3125 6.4375 17.429688 8.65625 15.546875 10.375 C 13.671875 12.101562 11.890625 12.96875 10.203125 12.96875 Z M 4.6875 -29.65625 C 5.164062 -30.375 5.941406 -31.929688 7.015625 -34.328125 C 8.097656 -36.734375 9.320312 -39.632812 10.6875 -43.03125 C 12.050781 -46.4375 13.351562 -50.082031 14.59375 -53.96875 C 15.832031 -57.851562 16.867188 -61.695312 17.703125 -65.5 C 18.546875 -69.300781 18.96875 -72.722656 18.96875 -75.765625 C 18.96875 -77.835938 18.707031 -79.492188 18.1875 -80.734375 C 17.664062 -81.984375 16.847656 -82.609375 15.734375 -82.609375 C 14.210938 -82.609375 12.890625 -81.601562 11.765625 -79.59375 C 10.640625 -77.59375 9.675781 -74.972656 8.875 -71.734375 C 8.082031 -68.492188 7.425781 -64.910156 6.90625 -60.984375 C 6.382812 -57.066406 5.960938 -53.109375 5.640625 -49.109375 C 5.316406 -45.109375 5.078125 -41.40625 4.921875 -38 C 4.765625 -34.59375 4.6875 -31.8125 4.6875 -29.65625 Z M 4.6875 -29.65625 "/></g></g></g><g fill="#4f3f2f" fill-opacity="1"><g transform="translate(110.096889, 120.801952)"><g><path d="M 6.25 9.96875 C 3.445312 9.96875 1.125 9.144531 -0.71875 7.5 C -2.5625 5.863281 -3.921875 3.703125 -4.796875 1.015625 C -5.679688 -1.660156 -6.125 -4.519531 -6.125 -7.5625 C -6.125 -11.082031 -5.503906 -14.644531 -4.265625 -18.25 C -3.023438 -21.851562 -1.242188 -24.851562 1.078125 -27.25 C 2.597656 -28.695312 4.054688 -29.738281 5.453125 -30.375 C 6.859375 -31.019531 8.160156 -31.34375 9.359375 -31.34375 C 10.804688 -31.34375 11.988281 -30.921875 12.90625 -30.078125 C 13.820312 -29.234375 14.28125 -28.050781 14.28125 -26.53125 C 14.28125 -24.6875 13.5 -22.765625 11.9375 -20.765625 C 10.382812 -18.765625 8.46875 -16.941406 6.1875 -15.296875 C 3.90625 -13.660156 1.601562 -12.40625 -0.71875 -11.53125 L -0.84375 -7.921875 C -0.84375 -5.597656 -0.601562 -3.21875 -0.125 -0.78125 C 0.351562 1.65625 1.234375 3.691406 2.515625 5.328125 C 3.796875 6.972656 5.554688 7.796875 7.796875 7.796875 C 8.203125 7.796875 8.664062 7.753906 9.1875 7.671875 C 9.707031 7.597656 10.25 7.484375 10.8125 7.328125 C 13.925781 5.960938 16.644531 3.921875 18.96875 1.203125 C 21.289062 -1.515625 23.3125 -4.414062 25.03125 -7.5 C 26.75 -10.582031 28.210938 -13.363281 29.421875 -15.84375 L 34.09375 -26.046875 C 34.332031 -26.285156 34.570312 -26.40625 34.8125 -26.40625 C 35.375 -26.40625 35.65625 -26.164062 35.65625 -25.6875 L 35.53125 -25.453125 C 34.5 -23.210938 33.222656 -20.367188 31.703125 -16.921875 C 30.179688 -13.484375 28.4375 -9.984375 26.46875 -6.421875 C 24.507812 -2.859375 22.289062 0.320312 19.8125 3.125 C 17.332031 5.925781 14.609375 7.847656 11.640625 8.890625 C 9.722656 9.609375 7.925781 9.96875 6.25 9.96875 Z M -0.484375 -13.453125 C 0.878906 -14.085938 2.539062 -15.046875 4.5 -16.328125 C 6.457031 -17.609375 7.957031 -18.726562 9 -19.6875 C 10.28125 -20.96875 11.179688 -22.1875 11.703125 -23.34375 C 12.222656 -24.507812 12.484375 -25.570312 12.484375 -26.53125 C 12.484375 -28.53125 11.644531 -29.53125 9.96875 -29.53125 C 9.164062 -29.53125 8.265625 -29.191406 7.265625 -28.515625 C 6.265625 -27.835938 5.203125 -26.695312 4.078125 -25.09375 C 1.835938 -21.8125 0.316406 -17.929688 -0.484375 -13.453125 Z M -0.484375 -13.453125 "/></g></g></g><g fill="#4f3f2f" fill-opacity="1"><g transform="translate(142.269644, 120.801952)"><g><path d="M 7.4375 11.28125 C 5.519531 11.28125 3.898438 10.835938 2.578125 9.953125 C 1.253906 9.078125 0.554688 7.679688 0.484375 5.765625 C 0.484375 2.484375 1.78125 -0.375 4.375 -2.8125 C 6.976562 -5.257812 10.039062 -7.484375 13.5625 -9.484375 C 11.96875 -10.367188 9.988281 -11.367188 7.625 -12.484375 C 5.257812 -13.609375 3.175781 -14.910156 1.375 -16.390625 C -0.425781 -17.867188 -1.328125 -19.566406 -1.328125 -21.484375 C -1.160156 -23.972656 -0.175781 -26.078125 1.625 -27.796875 C 3.425781 -29.515625 5.523438 -30.8125 7.921875 -31.6875 C 10.328125 -32.570312 12.566406 -33.015625 14.640625 -33.015625 C 16.722656 -33.015625 18.40625 -32.613281 19.6875 -31.8125 C 20.96875 -31.007812 21.609375 -29.769531 21.609375 -28.09375 C 21.609375 -27.375 21.46875 -26.59375 21.1875 -25.75 C 20.90625 -24.914062 20.445312 -23.976562 19.8125 -22.9375 C 19.726562 -22.695312 19.523438 -22.578125 19.203125 -22.578125 C 18.566406 -22.578125 18.25 -22.851562 18.25 -23.40625 L 18.375 -23.890625 C 19.488281 -25.492188 20.046875 -26.894531 20.046875 -28.09375 C 20.046875 -29.375 19.503906 -30.253906 18.421875 -30.734375 C 17.347656 -31.210938 16.050781 -31.453125 14.53125 -31.453125 C 11.726562 -31.453125 9.425781 -30.953125 7.625 -29.953125 C 5.820312 -28.953125 4.5 -27.832031 3.65625 -26.59375 C 2.820312 -25.351562 2.40625 -24.289062 2.40625 -23.40625 C 2.40625 -22.125 2.941406 -20.941406 4.015625 -19.859375 C 5.097656 -18.785156 6.457031 -17.785156 8.09375 -16.859375 C 9.738281 -15.941406 11.421875 -15.0625 13.140625 -14.21875 C 14.867188 -13.382812 16.332031 -12.523438 17.53125 -11.640625 C 20.09375 -13.003906 22.734375 -14.425781 25.453125 -15.90625 C 28.171875 -17.382812 30.59375 -18.941406 32.71875 -20.578125 C 34.84375 -22.222656 36.300781 -24.007812 37.09375 -25.9375 C 37.175781 -26.25 37.414062 -26.40625 37.8125 -26.40625 C 38.457031 -26.40625 38.78125 -26.128906 38.78125 -25.578125 L 38.65625 -25.328125 C 37.851562 -23.253906 36.390625 -21.351562 34.265625 -19.625 C 32.148438 -17.90625 29.75 -16.328125 27.0625 -14.890625 C 24.382812 -13.453125 21.6875 -12.007812 18.96875 -10.5625 C 20.8125 -9.039062 22.128906 -7.519531 22.921875 -6 C 23.722656 -4.476562 24.125 -3 24.125 -1.5625 C 24.125 1.082031 22.941406 3.503906 20.578125 5.703125 C 18.222656 7.898438 15.125 9.5625 11.28125 10.6875 C 9.925781 11.082031 8.644531 11.28125 7.4375 11.28125 Z M 7.4375 9.609375 C 7.84375 9.609375 8.242188 9.585938 8.640625 9.546875 C 9.046875 9.503906 9.40625 9.441406 9.71875 9.359375 C 12.601562 8.566406 15.003906 7.25 16.921875 5.40625 C 18.847656 3.5625 19.8125 1.519531 19.8125 -0.71875 C 19.8125 -2 19.453125 -3.28125 18.734375 -4.5625 C 18.015625 -5.84375 16.8125 -7.125 15.125 -8.40625 C 11.6875 -6.40625 8.664062 -4.28125 6.0625 -2.03125 C 3.457031 0.207031 2.15625 2.765625 2.15625 5.640625 C 2.238281 7.078125 2.78125 8.097656 3.78125 8.703125 C 4.78125 9.304688 6 9.609375 7.4375 9.609375 Z M 7.4375 9.609375 "/></g></g></g><g fill="#4f3f2f" fill-opacity="1"><g transform="translate(177.32354, 120.801952)"><g><path d="M 7.4375 11.28125 C 5.519531 11.28125 3.898438 10.835938 2.578125 9.953125 C 1.253906 9.078125 0.554688 7.679688 0.484375 5.765625 C 0.484375 2.484375 1.78125 -0.375 4.375 -2.8125 C 6.976562 -5.257812 10.039062 -7.484375 13.5625 -9.484375 C 11.96875 -10.367188 9.988281 -11.367188 7.625 -12.484375 C 5.257812 -13.609375 3.175781 -14.910156 1.375 -16.390625 C -0.425781 -17.867188 -1.328125 -19.566406 -1.328125 -21.484375 C -1.160156 -23.972656 -0.175781 -26.078125 1.625 -27.796875 C 3.425781 -29.515625 5.523438 -30.8125 7.921875 -31.6875 C 10.328125 -32.570312 12.566406 -33.015625 14.640625 -33.015625 C 16.722656 -33.015625 18.40625 -32.613281 19.6875 -31.8125 C 20.96875 -31.007812 21.609375 -29.769531 21.609375 -28.09375 C 21.609375 -27.375 21.46875 -26.59375 21.1875 -25.75 C 20.90625 -24.914062 20.445312 -23.976562 19.8125 -22.9375 C 19.726562 -22.695312 19.523438 -22.578125 19.203125 -22.578125 C 18.566406 -22.578125 18.25 -22.851562 18.25 -23.40625 L 18.375 -23.890625 C 19.488281 -25.492188 20.046875 -26.894531 20.046875 -28.09375 C 20.046875 -29.375 19.503906 -30.253906 18.421875 -30.734375 C 17.347656 -31.210938 16.050781 -31.453125 14.53125 -31.453125 C 11.726562 -31.453125 9.425781 -30.953125 7.625 -29.953125 C 5.820312 -28.953125 4.5 -27.832031 3.65625 -26.59375 C 2.820312 -25.351562 2.40625 -24.289062 2.40625 -23.40625 C 2.40625 -22.125 2.941406 -20.941406 4.015625 -19.859375 C 5.097656 -18.785156 6.457031 -17.785156 8.09375 -16.859375 C 9.738281 -15.941406 11.421875 -15.0625 13.140625 -14.21875 C 14.867188 -13.382812 16.332031 -12.523438 17.53125 -11.640625 C 20.09375 -13.003906 22.734375 -14.425781 25.453125 -15.90625 C 28.171875 -17.382812 30.59375 -18.941406 32.71875 -20.578125 C 34.84375 -22.222656 36.300781 -24.007812 37.09375 -25.9375 C 37.175781 -26.25 37.414062 -26.40625 37.8125 -26.40625 C 38.457031 -26.40625 38.78125 -26.128906 38.78125 -25.578125 L 38.65625 -25.328125 C 37.851562 -23.253906 36.390625 -21.351562 34.265625 -19.625 C 32.148438 -17.90625 29.75 -16.328125 27.0625 -14.890625 C 24.382812 -13.453125 21.6875 -12.007812 18.96875 -10.5625 C 20.8125 -9.039062 22.128906 -7.519531 22.921875 -6 C 23.722656 -4.476562 24.125 -3 24.125 -1.5625 C 24.125 1.082031 22.941406 3.503906 20.578125 5.703125 C 18.222656 7.898438 15.125 9.5625 11.28125 10.6875 C 9.925781 11.082031 8.644531 11.28125 7.4375 11.28125 Z M 7.4375 9.609375 C 7.84375 9.609375 8.242188 9.585938 8.640625 9.546875 C 9.046875 9.503906 9.40625 9.441406 9.71875 9.359375 C 12.601562 8.566406 15.003906 7.25 16.921875 5.40625 C 18.847656 3.5625 19.8125 1.519531 19.8125 -0.71875 C 19.8125 -2 19.453125 -3.28125 18.734375 -4.5625 C 18.015625 -5.84375 16.8125 -7.125 15.125 -8.40625 C 11.6875 -6.40625 8.664062 -4.28125 6.0625 -2.03125 C 3.457031 0.207031 2.15625 2.765625 2.15625 5.640625 C 2.238281 7.078125 2.78125 8.097656 3.78125 8.703125 C 4.78125 9.304688 6 9.609375 7.4375 9.609375 Z M 7.4375 9.609375 "/></g></g></g><g fill="#4f3f2f" fill-opacity="1"><g transform="translate(212.377437, 120.801952)"><g><path d="M 26.296875 8.890625 C 24.773438 8.804688 23.570312 7.984375 22.6875 6.421875 C 21.8125 4.859375 21.132812 2.875 20.65625 0.46875 C 20.175781 -1.925781 19.851562 -4.484375 19.6875 -7.203125 C 19.53125 -9.921875 19.453125 -12.441406 19.453125 -14.765625 L 19.5625 -19.8125 C 18.925781 -17.882812 18.007812 -15.660156 16.8125 -13.140625 C 15.613281 -10.617188 14.171875 -8.4375 12.484375 -6.59375 C 10.804688 -4.757812 8.882812 -3.84375 6.71875 -3.84375 C 4.082031 -3.84375 1.984375 -5.003906 0.421875 -7.328125 C -1.140625 -9.648438 -1.921875 -12.53125 -1.921875 -15.96875 C -1.921875 -19.332031 -1.242188 -22.65625 0.109375 -25.9375 C 1.472656 -29.21875 3.234375 -31.914062 5.390625 -34.03125 C 7.554688 -36.15625 9.800781 -37.21875 12.125 -37.21875 C 13.488281 -37.21875 14.769531 -36.738281 15.96875 -35.78125 C 17.164062 -34.820312 17.847656 -33.300781 18.015625 -31.21875 C 18.015625 -30.65625 17.734375 -30.375 17.171875 -30.375 C 16.765625 -30.375 16.484375 -30.613281 16.328125 -31.09375 C 15.765625 -33.8125 14.765625 -35.171875 13.328125 -35.171875 C 12.046875 -35.171875 10.664062 -34.226562 9.1875 -32.34375 C 7.707031 -30.46875 6.425781 -28.085938 5.34375 -25.203125 C 4.257812 -22.328125 3.71875 -19.328125 3.71875 -16.203125 C 3.71875 -14.921875 3.816406 -13.660156 4.015625 -12.421875 C 4.222656 -11.179688 4.601562 -10.003906 5.15625 -8.890625 C 5.394531 -8.328125 5.796875 -7.6875 6.359375 -6.96875 C 6.921875 -6.25 7.523438 -5.890625 8.171875 -5.890625 L 8.765625 -6 C 10.847656 -7.125 12.628906 -8.96875 14.109375 -11.53125 C 15.585938 -14.09375 16.804688 -16.8125 17.765625 -19.6875 C 18.722656 -22.570312 19.445312 -25.054688 19.9375 -27.140625 C 20.007812 -27.617188 20.066406 -28.21875 20.109375 -28.9375 C 20.148438 -29.65625 20.328125 -30.3125 20.640625 -30.90625 C 20.960938 -31.507812 21.609375 -31.8125 22.578125 -31.8125 C 23.453125 -31.8125 24.050781 -31.59375 24.375 -31.15625 C 24.695312 -30.71875 24.859375 -30.054688 24.859375 -29.171875 C 24.773438 -26.210938 24.648438 -23.351562 24.484375 -20.59375 C 24.328125 -17.832031 24.25 -14.929688 24.25 -11.890625 C 24.25 -9.003906 24.347656 -6.179688 24.546875 -3.421875 C 24.753906 -0.660156 25.097656 1.617188 25.578125 3.421875 C 26.054688 5.222656 26.734375 6.125 27.609375 6.125 C 28.578125 6.125 29.757812 5.140625 31.15625 3.171875 C 32.550781 1.210938 34.03125 -1.265625 35.59375 -4.265625 C 37.15625 -7.265625 38.65625 -10.304688 40.09375 -13.390625 C 41.539062 -16.472656 42.785156 -19.191406 43.828125 -21.546875 C 44.867188 -23.910156 45.507812 -25.375 45.75 -25.9375 C 45.820312 -26.25 46.0625 -26.40625 46.46875 -26.40625 C 47.101562 -26.40625 47.421875 -26.128906 47.421875 -25.578125 L 47.296875 -25.21875 C 46.816406 -24.007812 46.015625 -22.082031 44.890625 -19.4375 C 43.773438 -16.800781 42.457031 -13.882812 40.9375 -10.6875 C 39.414062 -7.488281 37.796875 -4.382812 36.078125 -1.375 C 34.359375 1.625 32.65625 4.082031 30.96875 6 C 29.289062 7.925781 27.734375 8.890625 26.296875 8.890625 Z M 26.296875 8.890625 "/></g></g></g><g fill="#4f3f2f" fill-opacity="1"><g transform="translate(256.314906, 120.801952)"><g><path d="M 34.21875 10.328125 C 32.050781 10.328125 30.445312 9.34375 29.40625 7.375 C 28.375 5.414062 27.675781 2.898438 27.3125 -0.171875 C 26.957031 -3.253906 26.78125 -6.476562 26.78125 -9.84375 L 27.015625 -22.8125 C 27.015625 -24.726562 26.953125 -26.445312 26.828125 -27.96875 C 26.710938 -29.488281 26.453125 -30.648438 26.046875 -31.453125 C 25.410156 -32.816406 24.613281 -33.5 23.65625 -33.5 C 22.613281 -33.5 21.570312 -32.878906 20.53125 -31.640625 C 19.488281 -30.398438 18.566406 -29.078125 17.765625 -27.671875 C 16.960938 -26.273438 16.363281 -25.253906 15.96875 -24.609375 C 14.207031 -21.410156 12.523438 -17.945312 10.921875 -14.21875 C 9.328125 -10.5 7.90625 -7.019531 6.65625 -3.78125 C 5.414062 -0.539062 4.519531 2 3.96875 3.84375 C 3.882812 4.476562 3.617188 4.957031 3.171875 5.28125 C 2.734375 5.601562 2.316406 5.765625 1.921875 5.765625 C 1.359375 5.765625 0.816406 5.523438 0.296875 5.046875 C -0.222656 4.566406 -0.5625 3.84375 -0.71875 2.875 C -0.957031 0.957031 -1.078125 -1.878906 -1.078125 -5.640625 C -1.078125 -8.203125 -1.015625 -10.941406 -0.890625 -13.859375 C -0.773438 -16.785156 -0.597656 -19.609375 -0.359375 -22.328125 C -0.117188 -25.046875 0.117188 -27.410156 0.359375 -29.421875 C 0.515625 -30.054688 0.832031 -30.535156 1.3125 -30.859375 C 1.800781 -31.179688 2.320312 -31.34375 2.875 -31.34375 C 3.519531 -31.34375 4.0625 -31.160156 4.5 -30.796875 C 4.9375 -30.429688 5.15625 -29.929688 5.15625 -29.296875 L 5.15625 -28.9375 C 5 -27.894531 4.835938 -26.09375 4.671875 -23.53125 C 4.515625 -20.96875 4.359375 -18.207031 4.203125 -15.25 C 4.046875 -12.289062 3.925781 -9.546875 3.84375 -7.015625 C 3.757812 -4.492188 3.71875 -2.71875 3.71875 -1.6875 L 3.71875 -0.953125 C 4.84375 -4.242188 6.363281 -8.1875 8.28125 -12.78125 C 10.207031 -17.382812 12.25 -21.648438 14.40625 -25.578125 C 14.96875 -26.535156 15.785156 -27.875 16.859375 -29.59375 C 17.941406 -31.3125 19.164062 -32.890625 20.53125 -34.328125 C 21.894531 -35.773438 23.253906 -36.5 24.609375 -36.5 C 26.691406 -36.5 28.289062 -35.894531 29.40625 -34.6875 C 30.53125 -33.488281 31.332031 -31.613281 31.8125 -29.0625 C 31.894531 -28.738281 31.957031 -28.296875 32 -27.734375 C 32.039062 -27.171875 32.0625 -26.570312 32.0625 -25.9375 C 32.0625 -23.375 31.941406 -20.109375 31.703125 -16.140625 C 31.460938 -12.179688 31.34375 -8.363281 31.34375 -4.6875 C 31.34375 -1.082031 31.5625 1.976562 32 4.5 C 32.4375 7.019531 33.296875 8.28125 34.578125 8.28125 C 35.460938 8.28125 36.484375 7.660156 37.640625 6.421875 C 38.796875 5.179688 40.253906 3.160156 42.015625 0.359375 C 43.054688 -1.398438 44.195312 -3.5 45.4375 -5.9375 C 46.675781 -8.382812 47.914062 -10.90625 49.15625 -13.5 C 50.40625 -16.101562 51.53125 -18.503906 52.53125 -20.703125 C 53.53125 -22.910156 54.269531 -24.65625 54.75 -25.9375 C 54.988281 -26.332031 55.269531 -26.53125 55.59375 -26.53125 C 56.144531 -26.53125 56.421875 -26.25 56.421875 -25.6875 L 56.3125 -25.328125 C 55.988281 -24.523438 55.265625 -22.820312 54.140625 -20.21875 C 53.023438 -17.625 51.664062 -14.664062 50.0625 -11.34375 C 48.46875 -8.019531 46.769531 -4.738281 44.96875 -1.5 C 43.164062 1.738281 41.421875 4.457031 39.734375 6.65625 C 38.054688 8.863281 36.578125 10.046875 35.296875 10.203125 Z M 34.21875 10.328125 "/></g></g></g><g fill="#4f3f2f" fill-opacity="1"><g transform="translate(309.255973, 120.801952)"><g><path d="M 24.25 8.890625 C 22.726562 8.804688 21.523438 7.941406 20.640625 6.296875 C 19.765625 4.660156 19.125 2.617188 18.71875 0.171875 C 18.320312 -2.265625 18.0625 -4.800781 17.9375 -7.4375 C 17.820312 -10.082031 17.765625 -12.40625 17.765625 -14.40625 L 17.765625 -16.921875 C 16.085938 -9.960938 13.6875 -4.601562 10.5625 -0.84375 C 7.445312 2.914062 4.285156 4.796875 1.078125 4.796875 C -1.398438 4.554688 -3.359375 3.515625 -4.796875 1.671875 C -6.242188 -0.160156 -6.96875 -2.921875 -6.96875 -6.609375 C -6.96875 -9.804688 -6.328125 -13.207031 -5.046875 -16.8125 C -3.359375 -21.289062 -1.359375 -24.707031 0.953125 -27.0625 C 3.273438 -29.425781 5.554688 -30.609375 7.796875 -30.609375 C 10.679688 -30.609375 13.085938 -28.769531 15.015625 -25.09375 L 15.125 -24.734375 C 15.125 -24.171875 14.84375 -23.890625 14.28125 -23.890625 C 13.96875 -23.890625 13.691406 -24.050781 13.453125 -24.375 C 12.328125 -26.695312 10.882812 -27.859375 9.125 -27.859375 C 7.925781 -27.859375 6.644531 -27.21875 5.28125 -25.9375 C 3.84375 -24.570312 2.5625 -22.609375 1.4375 -20.046875 C 0.320312 -17.484375 -0.570312 -14.78125 -1.25 -11.9375 C -1.9375 -9.101562 -2.28125 -6.484375 -2.28125 -4.078125 C -2.28125 -1.992188 -1.976562 -0.273438 -1.375 1.078125 C -0.78125 2.441406 0.195312 3.125 1.5625 3.125 C 2.4375 3.125 3.394531 2.84375 4.4375 2.28125 C 6.757812 1.082031 8.722656 -0.734375 10.328125 -3.171875 C 11.929688 -5.617188 13.25 -8.382812 14.28125 -11.46875 C 15.320312 -14.550781 16.144531 -17.691406 16.75 -20.890625 C 17.351562 -24.085938 17.773438 -27.085938 18.015625 -29.890625 C 18.085938 -34.140625 18.285156 -38.582031 18.609375 -43.21875 C 18.929688 -47.863281 19.289062 -52.285156 19.6875 -56.484375 C 20.09375 -60.691406 20.472656 -64.296875 20.828125 -67.296875 C 21.191406 -70.296875 21.453125 -72.238281 21.609375 -73.125 C 21.765625 -73.914062 22.082031 -74.453125 22.5625 -74.734375 C 23.050781 -75.015625 23.492188 -75.15625 23.890625 -75.15625 C 24.046875 -75.082031 24.363281 -74.960938 24.84375 -74.796875 C 25.332031 -74.640625 25.578125 -74.117188 25.578125 -73.234375 C 25.492188 -71.554688 25.269531 -68.773438 24.90625 -64.890625 C 24.550781 -61.015625 24.171875 -56.453125 23.765625 -51.203125 C 23.367188 -45.960938 23.007812 -40.421875 22.6875 -34.578125 C 22.375 -28.734375 22.21875 -23.050781 22.21875 -17.53125 C 22.21875 -13.050781 22.335938 -8.96875 22.578125 -5.28125 C 22.816406 -1.601562 23.195312 1.296875 23.71875 3.421875 C 24.238281 5.546875 24.859375 6.609375 25.578125 6.609375 L 26.171875 6.359375 C 27.296875 5.484375 28.535156 4.046875 29.890625 2.046875 C 31.253906 0.046875 32.632812 -2.253906 34.03125 -4.859375 C 35.4375 -7.460938 36.796875 -10.125 38.109375 -12.84375 C 39.429688 -15.5625 40.59375 -18.082031 41.59375 -20.40625 C 42.601562 -22.726562 43.382812 -24.570312 43.9375 -25.9375 C 44.175781 -26.332031 44.457031 -26.53125 44.78125 -26.53125 C 45.425781 -26.53125 45.75 -26.210938 45.75 -25.578125 L 45.625 -25.21875 C 45.300781 -24.332031 44.578125 -22.609375 43.453125 -20.046875 C 42.335938 -17.484375 40.976562 -14.582031 39.375 -11.34375 C 37.78125 -8.101562 36.082031 -4.941406 34.28125 -1.859375 C 32.476562 1.222656 30.710938 3.785156 28.984375 5.828125 C 27.265625 7.867188 25.6875 8.890625 24.25 8.890625 Z M 24.25 8.890625 "/></g></g></g><g fill="#4f3f2f" fill-opacity="1"><g transform="translate(351.752877, 120.801952)"><g><path d="M 12.609375 10.078125 C 10.609375 10.078125 9.265625 8.894531 8.578125 6.53125 C 7.898438 4.175781 7.5625 1.640625 7.5625 -1.078125 C 7.5625 -3.160156 7.660156 -5.101562 7.859375 -6.90625 C 8.066406 -8.707031 8.207031 -10.007812 8.28125 -10.8125 C 8.445312 -11.769531 8.566406 -12.644531 8.640625 -13.4375 C 8.722656 -14.238281 8.765625 -14.921875 8.765625 -15.484375 C 8.765625 -17.328125 8.421875 -18.648438 7.734375 -19.453125 C 7.054688 -20.253906 6 -21.015625 4.5625 -21.734375 C 3.125 -22.453125 1.320312 -23.53125 -0.84375 -24.96875 C -3.082031 -26.570312 -4.679688 -28.234375 -5.640625 -29.953125 C -6.597656 -31.671875 -7.078125 -33.289062 -7.078125 -34.8125 C -7.078125 -37.0625 -6.394531 -38.90625 -5.03125 -40.34375 C -3.675781 -41.78125 -2.238281 -42.5 -0.71875 -42.5 C 0.882812 -42.5 2.101562 -41.71875 2.9375 -40.15625 C 3.78125 -38.59375 4.203125 -36.8125 4.203125 -34.8125 C 4.203125 -33.457031 4.039062 -32.078125 3.71875 -30.671875 C 3.394531 -29.273438 2.992188 -28.015625 2.515625 -26.890625 C 2.992188 -26.566406 3.394531 -26.367188 3.71875 -26.296875 C 5.40625 -25.492188 6.988281 -24.734375 8.46875 -24.015625 C 9.945312 -23.296875 11.144531 -22.3125 12.0625 -21.0625 C 12.988281 -19.820312 13.453125 -18.082031 13.453125 -15.84375 C 13.453125 -14.5625 13.191406 -12.476562 12.671875 -9.59375 C 12.148438 -6.71875 11.890625 -3.238281 11.890625 0.84375 C 11.890625 2.6875 12.046875 4.285156 12.359375 5.640625 C 12.679688 7.003906 13.285156 7.6875 14.171875 7.6875 C 15.210938 7.601562 16.53125 6.582031 18.125 4.625 C 19.726562 2.664062 21.429688 0.1875 23.234375 -2.8125 C 25.035156 -5.820312 26.796875 -8.925781 28.515625 -12.125 C 30.234375 -15.320312 31.734375 -18.179688 33.015625 -20.703125 C 34.296875 -23.234375 35.175781 -25.015625 35.65625 -26.046875 C 35.894531 -26.367188 36.175781 -26.53125 36.5 -26.53125 C 37.0625 -26.53125 37.34375 -26.25 37.34375 -25.6875 L 37.21875 -25.21875 C 36.5 -23.769531 35.476562 -21.707031 34.15625 -19.03125 C 32.832031 -16.351562 31.3125 -13.429688 29.59375 -10.265625 C 27.875 -7.097656 26.070312 -4.035156 24.1875 -1.078125 C 22.3125 1.878906 20.472656 4.378906 18.671875 6.421875 C 16.867188 8.460938 15.25 9.644531 13.8125 9.96875 C 13.644531 10.039062 13.441406 10.078125 13.203125 10.078125 C 12.960938 10.078125 12.765625 10.078125 12.609375 10.078125 Z M 0.953125 -27.734375 C 1.597656 -29.097656 2.019531 -30.359375 2.21875 -31.515625 C 2.414062 -32.671875 2.515625 -33.734375 2.515625 -34.703125 C 2.515625 -36.703125 2.15625 -38.28125 1.4375 -39.4375 C 0.71875 -40.601562 -0.117188 -41.1875 -1.078125 -41.1875 C -1.554688 -41.1875 -1.914062 -41.101562 -2.15625 -40.9375 C -4.238281 -39.820312 -5.28125 -38.265625 -5.28125 -36.265625 C -5.28125 -34.578125 -4.640625 -32.929688 -3.359375 -31.328125 C -2.078125 -29.734375 -0.640625 -28.535156 0.953125 -27.734375 Z M 0.953125 -27.734375 "/></g></g></g><g fill="#4f3f2f" fill-opacity="1"><g transform="translate(385.606279, 120.801952)"><g><path d="M 26.296875 8.890625 C 24.773438 8.804688 23.570312 7.984375 22.6875 6.421875 C 21.8125 4.859375 21.132812 2.875 20.65625 0.46875 C 20.175781 -1.925781 19.851562 -4.484375 19.6875 -7.203125 C 19.53125 -9.921875 19.453125 -12.441406 19.453125 -14.765625 L 19.5625 -19.8125 C 18.925781 -17.882812 18.007812 -15.660156 16.8125 -13.140625 C 15.613281 -10.617188 14.171875 -8.4375 12.484375 -6.59375 C 10.804688 -4.757812 8.882812 -3.84375 6.71875 -3.84375 C 4.082031 -3.84375 1.984375 -5.003906 0.421875 -7.328125 C -1.140625 -9.648438 -1.921875 -12.53125 -1.921875 -15.96875 C -1.921875 -19.332031 -1.242188 -22.65625 0.109375 -25.9375 C 1.472656 -29.21875 3.234375 -31.914062 5.390625 -34.03125 C 7.554688 -36.15625 9.800781 -37.21875 12.125 -37.21875 C 13.488281 -37.21875 14.769531 -36.738281 15.96875 -35.78125 C 17.164062 -34.820312 17.847656 -33.300781 18.015625 -31.21875 C 18.015625 -30.65625 17.734375 -30.375 17.171875 -30.375 C 16.765625 -30.375 16.484375 -30.613281 16.328125 -31.09375 C 15.765625 -33.8125 14.765625 -35.171875 13.328125 -35.171875 C 12.046875 -35.171875 10.664062 -34.226562 9.1875 -32.34375 C 7.707031 -30.46875 6.425781 -28.085938 5.34375 -25.203125 C 4.257812 -22.328125 3.71875 -19.328125 3.71875 -16.203125 C 3.71875 -14.921875 3.816406 -13.660156 4.015625 -12.421875 C 4.222656 -11.179688 4.601562 -10.003906 5.15625 -8.890625 C 5.394531 -8.328125 5.796875 -7.6875 6.359375 -6.96875 C 6.921875 -6.25 7.523438 -5.890625 8.171875 -5.890625 L 8.765625 -6 C 10.847656 -7.125 12.628906 -8.96875 14.109375 -11.53125 C 15.585938 -14.09375 16.804688 -16.8125 17.765625 -19.6875 C 18.722656 -22.570312 19.445312 -25.054688 19.9375 -27.140625 C 20.007812 -27.617188 20.066406 -28.21875 20.109375 -28.9375 C 20.148438 -29.65625 20.328125 -30.3125 20.640625 -30.90625 C 20.960938 -31.507812 21.609375 -31.8125 22.578125 -31.8125 C 23.453125 -31.8125 24.050781 -31.59375 24.375 -31.15625 C 24.695312 -30.71875 24.859375 -30.054688 24.859375 -29.171875 C 24.773438 -26.210938 24.648438 -23.351562 24.484375 -20.59375 C 24.328125 -17.832031 24.25 -14.929688 24.25 -11.890625 C 24.25 -9.003906 24.347656 -6.179688 24.546875 -3.421875 C 24.753906 -0.660156 25.097656 1.617188 25.578125 3.421875 C 26.054688 5.222656 26.734375 6.125 27.609375 6.125 C 28.578125 6.125 29.757812 5.140625 31.15625 3.171875 C 32.550781 1.210938 34.03125 -1.265625 35.59375 -4.265625 C 37.15625 -7.265625 38.65625 -10.304688 40.09375 -13.390625 C 41.539062 -16.472656 42.785156 -19.191406 43.828125 -21.546875 C 44.867188 -23.910156 45.507812 -25.375 45.75 -25.9375 C 45.820312 -26.25 46.0625 -26.40625 46.46875 -26.40625 C 47.101562 -26.40625 47.421875 -26.128906 47.421875 -25.578125 L 47.296875 -25.21875 C 46.816406 -24.007812 46.015625 -22.082031 44.890625 -19.4375 C 43.773438 -16.800781 42.457031 -13.882812 40.9375 -10.6875 C 39.414062 -7.488281 37.796875 -4.382812 36.078125 -1.375 C 34.359375 1.625 32.65625 4.082031 30.96875 6 C 29.289062 7.925781 27.734375 8.890625 26.296875 8.890625 Z M 26.296875 8.890625 "/></g></g></g><g fill="#4f3f2f" fill-opacity="1"><g transform="translate(429.543748, 120.801952)"><g/></g></g><g fill="#4f3f2f" fill-opacity="1"><g transform="translate(466.878547, 120.801952)"><g><path d="M 3 38.546875 C 1.082031 38.460938 0.125 37.421875 0.125 35.421875 L 0 29.296875 C 0 25.296875 0.117188 19.773438 0.359375 12.734375 C 0.835938 -2.316406 1.859375 -17.144531 3.421875 -31.75 C 4.984375 -46.363281 6.882812 -61.113281 9.125 -76 C 9.363281 -77.675781 10.320312 -78.515625 12 -78.515625 C 13.757812 -78.359375 14.640625 -77.441406 14.640625 -75.765625 L 14.640625 -75.15625 C 13.847656 -68.59375 13.007812 -61.289062 12.125 -53.25 C 11.25 -45.207031 10.410156 -36.78125 9.609375 -27.96875 C 8.804688 -19.164062 8.125 -10.300781 7.5625 -1.375 C 7 7.539062 6.597656 16.164062 6.359375 24.5 C 7.242188 19.851562 8.382812 14.347656 9.78125 7.984375 C 11.1875 1.617188 12.769531 -4.960938 14.53125 -11.765625 C 15.488281 -15.367188 16.707031 -19.570312 18.1875 -24.375 C 19.664062 -29.175781 21.363281 -34.238281 23.28125 -39.5625 C 25.207031 -44.882812 27.226562 -50.125 29.34375 -55.28125 C 31.46875 -60.445312 33.691406 -65.171875 36.015625 -69.453125 C 38.335938 -73.734375 40.617188 -77.238281 42.859375 -79.96875 C 45.578125 -83.25 48.296875 -85.585938 51.015625 -86.984375 C 53.742188 -88.390625 56.507812 -89.09375 59.3125 -89.09375 C 63.3125 -89.09375 66.488281 -87.171875 68.84375 -83.328125 C 71.207031 -79.484375 72.390625 -74.640625 72.390625 -68.796875 C 72.390625 -64.234375 71.550781 -59.328125 69.875 -54.078125 C 68.195312 -48.835938 65.535156 -43.65625 61.890625 -38.53125 C 58.242188 -33.414062 53.457031 -28.71875 47.53125 -24.4375 C 41.613281 -20.15625 34.414062 -16.648438 25.9375 -13.921875 C 23.050781 -12.878906 19.96875 -11.921875 16.6875 -11.046875 C 17.082031 -10.160156 17.800781 -8.757812 18.84375 -6.84375 C 19.882812 -4.925781 21.265625 -2.828125 22.984375 -0.546875 C 24.710938 1.734375 26.796875 3.9375 29.234375 6.0625 C 31.671875 8.1875 34.453125 9.925781 37.578125 11.28125 C 40.703125 12.644531 44.222656 13.328125 48.140625 13.328125 L 50.3125 13.203125 C 55.03125 12.890625 59.347656 11.507812 63.265625 9.0625 C 67.191406 6.625 70.695312 3.644531 73.78125 0.125 C 76.863281 -3.394531 79.5625 -6.992188 81.875 -10.671875 C 84.195312 -14.359375 86.21875 -17.625 87.9375 -20.46875 C 89.664062 -23.3125 91.050781 -25.210938 92.09375 -26.171875 C 92.164062 -26.328125 92.363281 -26.40625 92.6875 -26.40625 C 93.25 -26.40625 93.53125 -26.128906 93.53125 -25.578125 C 93.53125 -25.410156 93.445312 -25.171875 93.28125 -24.859375 C 92.40625 -24.128906 91.328125 -22.703125 90.046875 -20.578125 C 88.765625 -18.460938 87.242188 -15.960938 85.484375 -13.078125 C 83.722656 -10.203125 81.703125 -7.203125 79.421875 -4.078125 C 77.140625 -0.960938 74.554688 1.992188 71.671875 4.796875 C 68.796875 7.597656 65.613281 9.921875 62.125 11.765625 C 58.644531 13.609375 54.785156 14.691406 50.546875 15.015625 L 48.265625 15.125 C 43.460938 15.125 39.21875 14.203125 35.53125 12.359375 C 31.851562 10.523438 28.671875 8.242188 25.984375 5.515625 C 23.304688 2.796875 21.125 0.0976562 19.4375 -2.578125 C 17.757812 -5.265625 16.523438 -7.40625 15.734375 -9 C 14.046875 -2.195312 12.519531 4.300781 11.15625 10.5 C 9.800781 16.707031 8.679688 22.03125 7.796875 26.46875 C 6.921875 30.914062 6.363281 33.976562 6.125 35.65625 C 6.039062 36.78125 5.675781 37.539062 5.03125 37.9375 C 4.394531 38.34375 3.71875 38.546875 3 38.546875 Z M 16.6875 -12.84375 C 26.289062 -15.40625 34.375 -18.765625 40.9375 -22.921875 C 47.5 -27.085938 52.757812 -31.671875 56.71875 -36.671875 C 60.6875 -41.679688 63.550781 -46.765625 65.3125 -51.921875 C 67.070312 -57.085938 67.953125 -61.910156 67.953125 -66.390625 C 67.953125 -71.992188 66.8125 -76.632812 64.53125 -80.3125 C 62.25 -84 59.347656 -85.84375 55.828125 -85.84375 C 54.066406 -85.84375 52.203125 -85.300781 50.234375 -84.21875 C 48.273438 -83.144531 46.257812 -81.363281 44.1875 -78.875 C 40.820312 -74.957031 37.738281 -70.273438 34.9375 -64.828125 C 32.132812 -59.390625 29.613281 -53.609375 27.375 -47.484375 C 25.132812 -41.359375 23.113281 -35.3125 21.3125 -29.34375 C 19.507812 -23.382812 17.96875 -17.882812 16.6875 -12.84375 Z M 16.6875 -12.84375 "/></g></g></g><g fill="#4f3f2f" fill-opacity="1"><g transform="translate(556.914448, 120.801952)"><g><path d="M 8.171875 12.484375 C 5.285156 12.484375 2.898438 11.601562 1.015625 9.84375 C -0.859375 8.082031 -2.253906 5.757812 -3.171875 2.875 C -4.097656 0 -4.5625 -3.078125 -4.5625 -6.359375 C -4.5625 -11.566406 -3.640625 -16.570312 -1.796875 -21.375 C -3.003906 -22.894531 -3.863281 -24.3125 -4.375 -25.625 C -4.894531 -26.945312 -5.15625 -28.210938 -5.15625 -29.421875 C -5.15625 -32.222656 -3.972656 -34.460938 -1.609375 -36.140625 C 0.742188 -37.816406 3.441406 -38.65625 6.484375 -38.65625 C 9.128906 -38.65625 11.726562 -37.9375 14.28125 -36.5 C 16.84375 -35.0625 18.984375 -32.78125 20.703125 -29.65625 C 22.429688 -26.53125 23.296875 -22.367188 23.296875 -17.171875 L 23.171875 -14.046875 C 26.128906 -14.609375 28.566406 -15.53125 30.484375 -16.8125 C 32.410156 -18.09375 33.992188 -19.570312 35.234375 -21.25 C 36.472656 -22.925781 37.578125 -24.566406 38.546875 -26.171875 C 38.703125 -26.328125 38.898438 -26.40625 39.140625 -26.40625 C 39.703125 -26.40625 39.984375 -26.164062 39.984375 -25.6875 L 39.859375 -25.453125 C 38.984375 -23.929688 37.863281 -22.25 36.5 -20.40625 C 35.132812 -18.570312 33.367188 -16.910156 31.203125 -15.421875 C 29.046875 -13.941406 26.328125 -12.882812 23.046875 -12.25 C 22.734375 -8.726562 22.09375 -5.1875 21.125 -1.625 C 20.164062 1.9375 18.882812 4.976562 17.28125 7.5 C 15.6875 10.019531 13.6875 11.5625 11.28125 12.125 C 10.238281 12.363281 9.203125 12.484375 8.171875 12.484375 Z M 8.890625 10.203125 C 9.285156 10.203125 9.660156 10.179688 10.015625 10.140625 C 10.378906 10.097656 10.722656 10.039062 11.046875 9.96875 C 13.046875 9.488281 14.6875 8.328125 15.96875 6.484375 C 17.25 4.640625 18.25 2.515625 18.96875 0.109375 C 19.6875 -2.285156 20.207031 -4.582031 20.53125 -6.78125 C 20.851562 -8.976562 21.09375 -10.679688 21.25 -11.890625 L 18.96875 -11.765625 C 16.082031 -11.765625 13.140625 -12.285156 10.140625 -13.328125 C 7.140625 -14.367188 4.238281 -15.96875 1.4375 -18.125 C 0.394531 -14.84375 -0.125 -11.125 -0.125 -6.96875 C -0.125 -4.164062 0.175781 -1.445312 0.78125 1.1875 C 1.382812 3.832031 2.34375 5.992188 3.65625 7.671875 C 4.976562 9.359375 6.722656 10.203125 8.890625 10.203125 Z M 18.96875 -13.5625 L 21.375 -13.6875 C 21.445312 -14.320312 21.503906 -14.976562 21.546875 -15.65625 C 21.585938 -16.34375 21.609375 -16.96875 21.609375 -17.53125 C 21.609375 -20.164062 21.304688 -22.664062 20.703125 -25.03125 C 20.109375 -27.394531 19.050781 -29.5 17.53125 -31.34375 C 16.007812 -33.257812 14.25 -34.65625 12.25 -35.53125 C 10.25 -36.414062 8.285156 -36.859375 6.359375 -36.859375 C 3.796875 -36.859375 1.554688 -36.175781 -0.359375 -34.8125 C -2.273438 -33.457031 -3.234375 -31.617188 -3.234375 -29.296875 C -3.234375 -28.410156 -3.070312 -27.46875 -2.75 -26.46875 C -2.4375 -25.46875 -1.878906 -24.410156 -1.078125 -23.296875 C -0.0351562 -25.617188 1.0625 -27.640625 2.21875 -29.359375 C 3.382812 -31.078125 4.484375 -32.535156 5.515625 -33.734375 C 5.835938 -34.140625 6.320312 -34.34375 6.96875 -34.34375 C 7.445312 -34.34375 7.90625 -34.179688 8.34375 -33.859375 C 8.78125 -33.535156 9 -33.054688 9 -32.421875 C 9 -32.015625 8.921875 -31.734375 8.765625 -31.578125 C 7.398438 -29.578125 6.175781 -27.710938 5.09375 -25.984375 C 4.019531 -24.265625 3.039062 -22.25 2.15625 -19.9375 C 4.71875 -17.769531 7.476562 -16.164062 10.4375 -15.125 C 13.40625 -14.082031 16.25 -13.5625 18.96875 -13.5625 Z M 18.96875 -13.5625 "/></g></g></g><g fill="#4f3f2f" fill-opacity="1"><g transform="translate(593.408954, 120.801952)"><g><path d="M 7.4375 11.28125 C 5.519531 11.28125 3.898438 10.835938 2.578125 9.953125 C 1.253906 9.078125 0.554688 7.679688 0.484375 5.765625 C 0.484375 2.484375 1.78125 -0.375 4.375 -2.8125 C 6.976562 -5.257812 10.039062 -7.484375 13.5625 -9.484375 C 11.96875 -10.367188 9.988281 -11.367188 7.625 -12.484375 C 5.257812 -13.609375 3.175781 -14.910156 1.375 -16.390625 C -0.425781 -17.867188 -1.328125 -19.566406 -1.328125 -21.484375 C -1.160156 -23.972656 -0.175781 -26.078125 1.625 -27.796875 C 3.425781 -29.515625 5.523438 -30.8125 7.921875 -31.6875 C 10.328125 -32.570312 12.566406 -33.015625 14.640625 -33.015625 C 16.722656 -33.015625 18.40625 -32.613281 19.6875 -31.8125 C 20.96875 -31.007812 21.609375 -29.769531 21.609375 -28.09375 C 21.609375 -27.375 21.46875 -26.59375 21.1875 -25.75 C 20.90625 -24.914062 20.445312 -23.976562 19.8125 -22.9375 C 19.726562 -22.695312 19.523438 -22.578125 19.203125 -22.578125 C 18.566406 -22.578125 18.25 -22.851562 18.25 -23.40625 L 18.375 -23.890625 C 19.488281 -25.492188 20.046875 -26.894531 20.046875 -28.09375 C 20.046875 -29.375 19.503906 -30.253906 18.421875 -30.734375 C 17.347656 -31.210938 16.050781 -31.453125 14.53125 -31.453125 C 11.726562 -31.453125 9.425781 -30.953125 7.625 -29.953125 C 5.820312 -28.953125 4.5 -27.832031 3.65625 -26.59375 C 2.820312 -25.351562 2.40625 -24.289062 2.40625 -23.40625 C 2.40625 -22.125 2.941406 -20.941406 4.015625 -19.859375 C 5.097656 -18.785156 6.457031 -17.785156 8.09375 -16.859375 C 9.738281 -15.941406 11.421875 -15.0625 13.140625 -14.21875 C 14.867188 -13.382812 16.332031 -12.523438 17.53125 -11.640625 C 20.09375 -13.003906 22.734375 -14.425781 25.453125 -15.90625 C 28.171875 -17.382812 30.59375 -18.941406 32.71875 -20.578125 C 34.84375 -22.222656 36.300781 -24.007812 37.09375 -25.9375 C 37.175781 -26.25 37.414062 -26.40625 37.8125 -26.40625 C 38.457031 -26.40625 38.78125 -26.128906 38.78125 -25.578125 L 38.65625 -25.328125 C 37.851562 -23.253906 36.390625 -21.351562 34.265625 -19.625 C 32.148438 -17.90625 29.75 -16.328125 27.0625 -14.890625 C 24.382812 -13.453125 21.6875 -12.007812 18.96875 -10.5625 C 20.8125 -9.039062 22.128906 -7.519531 22.921875 -6 C 23.722656 -4.476562 24.125 -3 24.125 -1.5625 C 24.125 1.082031 22.941406 3.503906 20.578125 5.703125 C 18.222656 7.898438 15.125 9.5625 11.28125 10.6875 C 9.925781 11.082031 8.644531 11.28125 7.4375 11.28125 Z M 7.4375 9.609375 C 7.84375 9.609375 8.242188 9.585938 8.640625 9.546875 C 9.046875 9.503906 9.40625 9.441406 9.71875 9.359375 C 12.601562 8.566406 15.003906 7.25 16.921875 5.40625 C 18.847656 3.5625 19.8125 1.519531 19.8125 -0.71875 C 19.8125 -2 19.453125 -3.28125 18.734375 -4.5625 C 18.015625 -5.84375 16.8125 -7.125 15.125 -8.40625 C 11.6875 -6.40625 8.664062 -4.28125 6.0625 -2.03125 C 3.457031 0.207031 2.15625 2.765625 2.15625 5.640625 C 2.238281 7.078125 2.78125 8.097656 3.78125 8.703125 C 4.78125 9.304688 6 9.609375 7.4375 9.609375 Z M 7.4375 9.609375 "/></g></g></g><g fill="#4f3f2f" fill-opacity="1"><g transform="translate(628.462836, 120.801952)"><g><path d="M 26.296875 8.890625 C 24.773438 8.804688 23.570312 7.984375 22.6875 6.421875 C 21.8125 4.859375 21.132812 2.875 20.65625 0.46875 C 20.175781 -1.925781 19.851562 -4.484375 19.6875 -7.203125 C 19.53125 -9.921875 19.453125 -12.441406 19.453125 -14.765625 L 19.5625 -19.8125 C 18.925781 -17.882812 18.007812 -15.660156 16.8125 -13.140625 C 15.613281 -10.617188 14.171875 -8.4375 12.484375 -6.59375 C 10.804688 -4.757812 8.882812 -3.84375 6.71875 -3.84375 C 4.082031 -3.84375 1.984375 -5.003906 0.421875 -7.328125 C -1.140625 -9.648438 -1.921875 -12.53125 -1.921875 -15.96875 C -1.921875 -19.332031 -1.242188 -22.65625 0.109375 -25.9375 C 1.472656 -29.21875 3.234375 -31.914062 5.390625 -34.03125 C 7.554688 -36.15625 9.800781 -37.21875 12.125 -37.21875 C 13.488281 -37.21875 14.769531 -36.738281 15.96875 -35.78125 C 17.164062 -34.820312 17.847656 -33.300781 18.015625 -31.21875 C 18.015625 -30.65625 17.734375 -30.375 17.171875 -30.375 C 16.765625 -30.375 16.484375 -30.613281 16.328125 -31.09375 C 15.765625 -33.8125 14.765625 -35.171875 13.328125 -35.171875 C 12.046875 -35.171875 10.664062 -34.226562 9.1875 -32.34375 C 7.707031 -30.46875 6.425781 -28.085938 5.34375 -25.203125 C 4.257812 -22.328125 3.71875 -19.328125 3.71875 -16.203125 C 3.71875 -14.921875 3.816406 -13.660156 4.015625 -12.421875 C 4.222656 -11.179688 4.601562 -10.003906 5.15625 -8.890625 C 5.394531 -8.328125 5.796875 -7.6875 6.359375 -6.96875 C 6.921875 -6.25 7.523438 -5.890625 8.171875 -5.890625 L 8.765625 -6 C 10.847656 -7.125 12.628906 -8.96875 14.109375 -11.53125 C 15.585938 -14.09375 16.804688 -16.8125 17.765625 -19.6875 C 18.722656 -22.570312 19.445312 -25.054688 19.9375 -27.140625 C 20.007812 -27.617188 20.066406 -28.21875 20.109375 -28.9375 C 20.148438 -29.65625 20.328125 -30.3125 20.640625 -30.90625 C 20.960938 -31.507812 21.609375 -31.8125 22.578125 -31.8125 C 23.453125 -31.8125 24.050781 -31.59375 24.375 -31.15625 C 24.695312 -30.71875 24.859375 -30.054688 24.859375 -29.171875 C 24.773438 -26.210938 24.648438 -23.351562 24.484375 -20.59375 C 24.328125 -17.832031 24.25 -14.929688 24.25 -11.890625 C 24.25 -9.003906 24.347656 -6.179688 24.546875 -3.421875 C 24.753906 -0.660156 25.097656 1.617188 25.578125 3.421875 C 26.054688 5.222656 26.734375 6.125 27.609375 6.125 C 28.578125 6.125 29.757812 5.140625 31.15625 3.171875 C 32.550781 1.210938 34.03125 -1.265625 35.59375 -4.265625 C 37.15625 -7.265625 38.65625 -10.304688 40.09375 -13.390625 C 41.539062 -16.472656 42.785156 -19.191406 43.828125 -21.546875 C 44.867188 -23.910156 45.507812 -25.375 45.75 -25.9375 C 45.820312 -26.25 46.0625 -26.40625 46.46875 -26.40625 C 47.101562 -26.40625 47.421875 -26.128906 47.421875 -25.578125 L 47.296875 -25.21875 C 46.816406 -24.007812 46.015625 -22.082031 44.890625 -19.4375 C 43.773438 -16.800781 42.457031 -13.882812 40.9375 -10.6875 C 39.414062 -7.488281 37.796875 -4.382812 36.078125 -1.375 C 34.359375 1.625 32.65625 4.082031 30.96875 6 C 29.289062 7.925781 27.734375 8.890625 26.296875 8.890625 Z M 26.296875 8.890625 "/></g></g></g></g></g><g transform="matrix(1, 0, 0, 1, 246, 430)"><g clip-path="url(#5f623d3aee)"><g fill="#4f3f2e" fill-opacity="1"><g transform="translate(3.265077, 65.406797)"><g><path d="M 58.859375 0 L 51.28125 0 C 51.40625 -0.507812 51.4375 -1.644531 51.375 -3.40625 C 51.3125 -5.175781 51.1875 -6.882812 51 -8.53125 L 47.296875 -38.578125 L 29.28125 0 L 28.625 0 L 10.609375 -38.390625 L 6.828125 -8.53125 C 6.640625 -6.882812 6.546875 -5.144531 6.546875 -3.3125 C 6.546875 -1.476562 6.578125 -0.375 6.640625 0 L 1.984375 0 C 2.367188 -0.882812 2.671875 -1.640625 2.890625 -2.265625 C 3.109375 -2.898438 3.296875 -3.660156 3.453125 -4.546875 C 3.617188 -5.429688 3.796875 -6.632812 3.984375 -8.15625 L 9.28125 -51.75 L 10.328125 -51.75 L 30.515625 -9 L 50.421875 -51.75 L 51.375 -51.75 L 56.875 -8.15625 C 57.0625 -6.632812 57.234375 -5.429688 57.390625 -4.546875 C 57.546875 -3.660156 57.75 -2.898438 58 -2.265625 C 58.257812 -1.640625 58.546875 -0.882812 58.859375 0 Z M 58.859375 0 "/></g></g></g><g fill="#4f3f2e" fill-opacity="1"><g transform="translate(59.93835, 65.406797)"><g><path d="M 33.453125 -4.265625 L 32.03125 0 L 5.125 0 C 5.5 -1.007812 5.71875 -1.941406 5.78125 -2.796875 C 5.84375 -3.648438 5.875 -5.148438 5.875 -7.296875 L 5.875 -43.78125 C 5.875 -45.238281 5.84375 -46.566406 5.78125 -47.765625 C 5.71875 -48.972656 5.5 -50.050781 5.125 -51 L 31 -51 L 32.703125 -47.015625 C 31.179688 -47.578125 29.867188 -47.90625 28.765625 -48 C 27.660156 -48.101562 26.570312 -48.15625 25.5 -48.15625 L 11.46875 -48.15625 L 11.46875 -31.375 L 29.765625 -31.375 L 28.8125 -28.4375 L 11.46875 -28.4375 L 11.46875 -2.9375 L 26.640625 -2.9375 C 28.722656 -2.9375 30.992188 -3.378906 33.453125 -4.265625 Z M 33.453125 -4.265625 "/></g></g></g><g fill="#4f3f2e" fill-opacity="1"><g transform="translate(90.833218, 65.406797)"><g><path d="M 47.390625 -51 C 47.390625 -51 47.257812 -50.585938 47 -49.765625 C 46.75 -48.941406 46.625 -47.675781 46.625 -45.96875 L 46.625 1.421875 L 45.96875 1.421875 L 8.0625 -41.421875 L 8.0625 -5.125 C 8.0625 -3.414062 8.171875 -2.132812 8.390625 -1.28125 C 8.609375 -0.425781 8.71875 0 8.71875 0 L 4.359375 0 C 4.359375 0 4.484375 -0.425781 4.734375 -1.28125 C 4.992188 -2.132812 5.125 -3.414062 5.125 -5.125 L 5.125 -52.515625 L 5.875 -52.515625 L 43.78125 -9.671875 L 43.78125 -45.96875 C 43.78125 -47.675781 43.65625 -48.941406 43.40625 -49.765625 C 43.15625 -50.585938 43.03125 -51 43.03125 -51 Z M 47.390625 -51 "/></g></g></g><g fill="#4f3f2e" fill-opacity="1"><g transform="translate(137.1762, 65.406797)"><g><path d="M 43.125 -47.015625 C 41.601562 -47.578125 40.289062 -47.90625 39.1875 -48 C 38.082031 -48.101562 36.992188 -48.15625 35.921875 -48.15625 L 24.171875 -48.15625 L 24.171875 -7.296875 C 24.171875 -5.148438 24.1875 -3.648438 24.21875 -2.796875 C 24.25 -1.941406 24.453125 -1.007812 24.828125 0 L 17.8125 0 C 18.257812 -1.007812 18.5 -2.128906 18.53125 -3.359375 C 18.5625 -4.597656 18.578125 -5.910156 18.578125 -7.296875 L 18.578125 -48.15625 L 6.828125 -48.15625 C 5.691406 -48.15625 4.582031 -48.101562 3.5 -48 C 2.425781 -47.90625 1.132812 -47.578125 -0.375 -47.015625 L 1.328125 -51 L 41.421875 -51 Z M 43.125 -47.015625 "/></g></g></g><g fill="#4f3f2e" fill-opacity="1"><g transform="translate(169.965983, 65.406797)"><g><path d="M 54.875 -34.21875 C 56.332031 -30.238281 56.695312 -26.207031 55.96875 -22.125 C 55.238281 -18.050781 53.671875 -14.304688 51.265625 -10.890625 C 48.867188 -7.484375 45.804688 -4.738281 42.078125 -2.65625 C 38.347656 -0.570312 34.148438 0.46875 29.484375 0.46875 C 26.253906 0.46875 22.945312 -0.0664062 19.5625 -1.140625 C 16.1875 -2.210938 13.125 -3.992188 10.375 -6.484375 C 7.625 -8.984375 5.492188 -12.316406 3.984375 -16.484375 C 2.585938 -20.472656 2.238281 -24.503906 2.9375 -28.578125 C 3.632812 -32.648438 5.164062 -36.390625 7.53125 -39.796875 C 9.90625 -43.210938 12.972656 -45.960938 16.734375 -48.046875 C 20.492188 -50.140625 24.707031 -51.1875 29.375 -51.1875 C 32.664062 -51.1875 35.984375 -50.644531 39.328125 -49.5625 C 42.679688 -48.488281 45.75 -46.703125 48.53125 -44.203125 C 51.3125 -41.710938 53.425781 -38.382812 54.875 -34.21875 Z M 49.953125 -25.109375 C 49.703125 -29.222656 48.847656 -32.71875 47.390625 -35.59375 C 45.929688 -38.46875 44.144531 -40.785156 42.03125 -42.546875 C 39.914062 -44.316406 37.734375 -45.628906 35.484375 -46.484375 C 33.242188 -47.335938 31.207031 -47.765625 29.375 -47.765625 C 25.394531 -47.765625 22.0625 -47.082031 19.375 -45.71875 C 16.695312 -44.363281 14.550781 -42.582031 12.9375 -40.375 C 11.320312 -38.164062 10.179688 -35.765625 9.515625 -33.171875 C 8.859375 -30.578125 8.59375 -28.050781 8.71875 -25.59375 C 8.96875 -21.550781 9.816406 -18.078125 11.265625 -15.171875 C 12.722656 -12.265625 14.507812 -9.910156 16.625 -8.109375 C 18.75 -6.304688 20.945312 -4.992188 23.21875 -4.171875 C 25.5 -3.347656 27.550781 -2.9375 29.375 -2.9375 C 33.488281 -3 36.882812 -3.722656 39.5625 -5.109375 C 42.25 -6.503906 44.382812 -8.289062 45.96875 -10.46875 C 47.550781 -12.65625 48.640625 -15.023438 49.234375 -17.578125 C 49.835938 -20.140625 50.078125 -22.648438 49.953125 -25.109375 Z M 49.953125 -25.109375 "/></g></g></g><g fill="#4f3f2e" fill-opacity="1"><g transform="translate(224.175171, 65.406797)"><g><path d="M 41.234375 0 L 32.421875 0 C 30.460938 -2.019531 28.753906 -3.882812 27.296875 -5.59375 C 25.835938 -7.300781 24.460938 -9.070312 23.171875 -10.90625 C 21.878906 -12.738281 20.425781 -14.851562 18.8125 -17.25 C 17.195312 -19.65625 15.191406 -22.59375 12.796875 -26.0625 L 13.453125 -26.921875 C 15.671875 -26.734375 17.378906 -26.703125 18.578125 -26.828125 C 19.773438 -26.953125 20.375 -27.015625 20.375 -27.015625 C 23.21875 -27.328125 25.476562 -28.492188 27.15625 -30.515625 C 28.832031 -32.535156 29.640625 -34.8125 29.578125 -37.34375 C 29.515625 -40.0625 28.613281 -42.320312 26.875 -44.125 C 25.132812 -45.925781 22.96875 -47.078125 20.375 -47.578125 C 19.488281 -47.765625 18.820312 -47.90625 18.375 -48 C 17.9375 -48.101562 17.257812 -48.15625 16.34375 -48.15625 C 15.425781 -48.15625 13.800781 -48.15625 11.46875 -48.15625 L 11.46875 -7.296875 C 11.46875 -5.910156 11.484375 -4.597656 11.515625 -3.359375 C 11.546875 -2.128906 11.75 -1.007812 12.125 0 L 5.125 0 C 5.5 -1.007812 5.71875 -2.128906 5.78125 -3.359375 C 5.84375 -4.597656 5.875 -5.910156 5.875 -7.296875 L 5.875 -43.78125 C 5.875 -45.238281 5.84375 -46.566406 5.78125 -47.765625 C 5.71875 -48.972656 5.5 -50.050781 5.125 -51 L 13.078125 -51 C 14.472656 -51 16.195312 -51 18.25 -51 C 20.300781 -51 22.429688 -50.789062 24.640625 -50.375 C 26.847656 -49.96875 28.773438 -49.066406 30.421875 -47.671875 C 30.742188 -47.421875 31.265625 -46.898438 31.984375 -46.109375 C 32.710938 -45.316406 33.390625 -44.207031 34.015625 -42.78125 C 34.648438 -41.363281 34.96875 -39.613281 34.96875 -37.53125 C 34.96875 -34.9375 34.222656 -32.597656 32.734375 -30.515625 C 31.253906 -28.429688 29.328125 -26.804688 26.953125 -25.640625 C 24.585938 -24.472656 22.046875 -23.984375 19.328125 -24.171875 C 21.984375 -20.066406 25.191406 -15.847656 28.953125 -11.515625 C 32.710938 -7.179688 36.804688 -3.34375 41.234375 0 Z M 41.234375 0 "/></g></g></g><g fill="#4f3f2e" fill-opacity="1"><g transform="translate(258.671418, 65.406797)"><g><path d="M 12.609375 0 L 5.5 0 C 5.9375 -1.007812 6.171875 -2.128906 6.203125 -3.359375 C 6.234375 -4.597656 6.25 -5.910156 6.25 -7.296875 L 6.25 -43.78125 C 6.25 -45.238281 6.234375 -46.566406 6.203125 -47.765625 C 6.171875 -48.972656 5.9375 -50.050781 5.5 -51 L 12.609375 -51 C 12.222656 -50.050781 12 -48.972656 11.9375 -47.765625 C 11.875 -46.566406 11.84375 -45.238281 11.84375 -43.78125 L 11.84375 -7.296875 C 11.84375 -5.910156 11.875 -4.597656 11.9375 -3.359375 C 12 -2.128906 12.222656 -1.007812 12.609375 0 Z M 12.609375 0 "/></g></g></g><g fill="#4f3f2e" fill-opacity="1"><g transform="translate(271.843584, 65.406797)"><g><path d="M 43.3125 0 L 35.734375 0 L 28.0625 -18.953125 L 10.140625 -18.953125 L 2.46875 0 L -1.890625 0 C -1.328125 -0.757812 -0.851562 -1.40625 -0.46875 -1.9375 C -0.09375 -2.476562 0.3125 -3.160156 0.75 -3.984375 C 1.195312 -4.804688 1.707031 -5.941406 2.28125 -7.390625 L 20.1875 -51.75 L 20.953125 -51.75 L 38.859375 -7.296875 C 39.492188 -5.773438 40.046875 -4.601562 40.515625 -3.78125 C 40.992188 -2.96875 41.453125 -2.304688 41.890625 -1.796875 C 42.335938 -1.296875 42.8125 -0.695312 43.3125 0 Z M 26.640625 -22.5625 L 19.140625 -41.234375 L 11.5625 -22.5625 Z M 26.640625 -22.5625 "/></g></g></g></g></g><path stroke-linecap="butt" transform="matrix(0.75, 0, 0, 0.75, 167.266929, 418.910879)" fill="none" stroke-linejoin="miter" d="M -0.00173931 0.499036 L 633.956626 0.499036 " stroke="#000000" stroke-width="1" stroke-opacity="1" stroke-miterlimit="4"/></svg>